<?xml version="1.0" encoding="UTF-8" standalone="yes"?>
<!-- Created with sK1/UniConvertor (http://sk1project.org/) -->
<svg xmlns="http://www.w3.org/2000/svg" xmlns:xlink="http://www.w3.org/1999/xlink"
  width="595.276pt" height="841.89pt" viewBox="0 0 595.276 841.89"
  fill-rule="evenodd">
<g>
<path style="stroke:none; fill:none" d="M 640 841.89C 565.341 841.89 490.659 841.89 416 841.89C 412.433 830.322 402.093 822.878 399 812.89C 392.367 791.473 397.86 774.154 388 756.89C 381.558 745.612 365.569 736.887 361 725.89C 359.667 716.891 358.333 707.889 357 698.89C 350.667 686.224 344.333 673.555 338 660.89C 331.821 642.039 333.96 627.214 328 610.89C 323.932 599.748 311.626 587.446 309 579.89C 303.843 565.053 307.559 549.9 303 536.89C 297.154 520.205 284.441 511.106 276 497.89C 274.053 494.842 261.671 432.682 262 430.89C 263.333 430.89 264.667 430.89 266 430.89C 283.71 453.146 311.332 465.498 334 482.89C 369.33 517.22 404.67 551.56 440 585.89C 441 585.223 442 584.556 443 583.89C 447.291 537.331 470.358 499.397 479 458.89C 481.282 448.192 472.724 445.863 471 438.89C 467.26 423.759 478.703 415.477 480 402.89C 462.691 386.605 441.001 389.798 437 358.89C 440.151 359.378 480.923 373.4 482 374.89C 486.333 384.555 490.667 394.224 495 403.89C 502.03 409.556 512.413 407.225 522 410.89C 542.998 422.889 564.002 434.891 585 446.89C 603.331 453.889 621.669 460.89 640 467.89C 640 592.544 640 717.236 640 841.89z"/>
<path style="stroke:none; fill:none" d="M 0 841.89C 0 729.568 0 617.212 0 504.89C 29.3178 490.213 58.8112 468.673 83 447.89C 89.9993 439.224 97.0007 430.556 104 421.89C 110.999 420.89 118.001 419.89 125 418.89C 130.999 413.224 137.001 407.556 143 401.89C 144 401.89 145 401.89 146 401.89C 146 404.223 146 406.557 146 408.89C 142.334 413.556 138.666 418.224 135 422.89C 135 423.556 135 424.223 135 424.89C 139 426.89 143 428.89 147 430.89C 146.97 468.027 162.298 485.745 172 510.89C 175.333 525.888 178.667 540.891 182 555.89C 187.999 564.556 194.001 573.224 200 581.89C 201.667 591.222 203.333 600.557 205 609.89C 211.073 624.1 225.041 639.281 226 657.89C 226.77 672.839 224.721 693.006 230 705.89C 235.898 720.284 251.124 729.275 257 741.89C 260.333 754.222 263.667 766.558 267 778.89C 279.383 802.19 295.207 813.35 304 841.89C 202.677 841.89 101.323 841.89 0 841.89z"/>
</g>
</svg>